<svg xmlns="http://www.w3.org/2000/svg" width="123" height="85" fill="none" viewBox="0 0 123 85"><path fill="#A4AFB5" fill-rule="evenodd" d="M16.5 16.75C16.5 7.49923 23.9992 0 33.25 0C42.5008 0 50 7.49923 50 16.75V36.25C50 43.8439 56.1561 50 63.75 50H102.929L85.9644 33.0355L93.0355 25.9645L122.071 55L93.0355 84.0356L85.9644 76.9645L102.929 60H63.75C50.6332 60 40 49.3668 40 36.25V16.75C40 13.0221 36.9779 10 33.25 10C29.5221 10 26.5 13.0221 26.5 16.75V36.25C26.5 49.3668 15.8668 60 2.75 60H0V50H2.75C10.3439 50 16.5 43.8439 16.5 36.25V16.75Z" clip-rule="evenodd"/></svg>